# File created by Blade
# Date/Time:  Wed Jan 21 17:47:32 2015
# Frame Rate: 120.000 fps
#------------------------------------------------------
:FULLY-SPECIFIED
:DEGREES
1838
root 20.606163 35.360157 -23.607720 -178.305451 -0.960782 -179.712392
Spine -14.366952 0.254481 -1.765511
Head 8.520613 -1.746195 4.678234
LeftShoulder -9.518926 -32.392675 18.517936
LeftArm 4.227393 2.187545 -7.625288
LeftForeArm 6.344519 -0.000000 -3.548759
LeftHand -9.181885 -0.000000 -3.310838
LeftHandThumb1 -26.253704 0.000000 33.147579
RightShoulder -8.387637 -1.175619 -9.489868
RightArm 4.782712 39.379712 12.746503
RightForeArm -33.506833 -0.000000 2.319585
RightHand -6.931665 -0.000000 6.639773
RightHandThumb1 -24.326973 -0.000000 -32.862282
LeftUpLeg 7.021214 8.629321 4.944294
LeftLeg -5.667870 -0.000000 0.000000
LeftFoot -18.310389 24.535120 -13.763126
LeftToeBase 24.309341 -0.000000 -0.000000
RightUpLeg 7.203659 -10.111143 -4.750433
RightLeg -2.803267 -0.000000 0.000000
RightFoot -21.602519 -24.275166 18.143909
RightToeBase 24.198706 -0.000000 -0.000000
1839
root 20.598366 35.358801 -23.620091 -178.296587 -0.948814 -179.728141
Spine -14.350826 0.264931 -1.782933
Head 8.485923 -1.718193 4.616924
LeftShoulder -9.549588 -32.458622 18.538444
LeftArm 4.219706 2.221188 -7.607489
LeftForeArm 6.357127 -0.000000 -3.547408
LeftHand -9.190489 -0.000000 -3.350970
LeftHandThumb1 -26.253704 0.000000 33.147579
RightShoulder -8.363258 -1.120670 -9.483927
RightArm 4.711817 39.467991 12.689528
RightForeArm -33.574819 -0.000000 2.309034
RightHand -6.937635 -0.000000 6.639428
RightHandThumb1 -24.326973 -0.000000 -32.862282
LeftUpLeg 7.038318 8.663796 4.918361
LeftLeg -5.674095 -0.000000 0.000000
LeftFoot -18.315204 24.519984 -13.750120
LeftToeBase 24.273643 -0.000000 -0.000000
RightUpLeg 7.220425 -10.171387 -4.786067
RightLeg -2.818736 -0.000000 0.000000
RightFoot -21.588199 -24.239842 18.125915
RightToeBase 24.232226 -0.000000 -0.000000
1840
root 20.590400 35.357447 -23.633101 -178.285377 -0.913909 -179.749844
Spine -14.341016 0.290866 -1.808909
Head 8.435846 -1.678664 4.573218
LeftShoulder -9.586208 -32.495984 18.561824
LeftArm 4.216093 2.214024 -7.598362
LeftForeArm 6.370975 -0.000000 -3.540942
LeftHand -9.236664 -0.000000 -3.343055
LeftHandThumb1 -26.253704 0.000000 33.147579
RightShoulder -8.379785 -1.110847 -9.491957
RightArm 4.744206 39.507676 12.730017
RightForeArm -33.535520 -0.000000 2.275082
RightHand -6.987252 -0.000000 6.525086
RightHandThumb1 -24.326973 -0.000000 -32.862282
LeftUpLeg 7.058895 8.744075 4.887378
LeftLeg -5.680846 -0.000000 0.000000
LeftFoot -18.322427 24.477448 -13.754581
LeftToeBase 24.275995 -0.000000 -0.000000
RightUpLeg 7.229904 -10.219658 -4.831053
RightLeg -2.827250 -0.000000 0.000000
RightFoot -21.589096 -24.164381 18.108843
RightToeBase 24.252757 -0.000000 -0.000000
1841
root 20.583461 35.356305 -23.644825 -178.271915 -0.876640 -179.761283
Spine -14.336604 0.328482 -1.818474
Head 8.382707 -1.700305 4.499936
LeftShoulder -9.581432 -32.544896 18.558381
LeftArm 4.176762 2.260513 -7.573732
LeftForeArm 6.327458 -0.000000 -3.543441
LeftHand -9.237791 -0.000000 -3.346470
LeftHandThumb1 -26.253704 0.000000 33.147579
RightShoulder -8.388774 -1.061254 -9.518744
RightArm 4.718593 39.504955 12.731836
RightForeArm -33.552599 -0.000000 2.275489
RightHand -7.020618 -0.000000 6.521576
RightHandThumb1 -24.326973 -0.000000 -32.862282
LeftUpLeg 7.080767 8.781251 4.863227
LeftLeg -5.699374 -0.000000 0.000000
LeftFoot -18.327562 24.496996 -13.749044
LeftToeBase 24.257008 -0.000000 -0.000000
RightUpLeg 7.242484 -10.230440 -4.858462
RightLeg -2.858190 -0.000000 0.000000
RightFoot -21.563238 -24.142041 18.103661
RightToeBase 24.233303 -0.000000 -0.000000
1842
root 20.578505 35.354899 -23.655350 -178.260612 -0.841072 -179.761743
Spine -14.318995 0.352759 -1.824423
Head 8.331609 -1.688226 4.458487
LeftShoulder -9.598393 -32.567689 18.581208
LeftArm 4.139392 2.274128 -7.568864
LeftForeArm 6.318427 0.000000 -3.528823
LeftHand -9.296163 -0.000000 -3.331105
LeftHandThumb1 -26.253704 0.000000 33.147579
RightShoulder -8.385332 -1.030709 -9.530134
RightArm 4.708992 39.486510 12.738456
RightForeArm -33.545462 -0.000000 2.255532
RightHand -7.167178 -0.000000 6.551675
RightHandThumb1 -24.326973 -0.000000 -32.862282
LeftUpLeg 7.104037 8.842862 4.855090
LeftLeg -5.723098 -0.000000 0.000000
LeftFoot -18.338435 24.494109 -13.744106
LeftToeBase 24.276011 -0.000000 -0.000000
RightUpLeg 7.249048 -10.262055 -4.874428
RightLeg -2.872537 -0.000000 0.000000
RightFoot -21.541526 -24.086755 18.104808
RightToeBase 24.198716 -0.000000 -0.000000
1843
root 20.572472 35.353429 -23.667124 -178.258697 -0.805395 -179.765936
Spine -14.290523 0.398988 -1.831699
Head 8.274241 -1.689650 4.406063
LeftShoulder -9.603717 -32.547424 18.578864
LeftArm 4.138832 2.222535 -7.573211
LeftForeArm 6.323280 -0.000000 -3.546780
LeftHand -9.327210 -0.000000 -3.315076
LeftHandThumb1 -26.253704 0.000000 33.147579
RightShoulder -8.373243 -1.027146 -9.526601
RightArm 4.616846 39.540292 12.662532
RightForeArm -33.506592 -0.000000 2.264810
RightHand -7.068567 -0.000000 6.581193
RightHandThumb1 -24.326973 -0.000000 -32.862282
LeftUpLeg 7.147668 8.854009 4.839431
LeftLeg -5.758700 -0.000000 0.000000
LeftFoot -18.340881 24.524583 -13.746422
LeftToeBase 24.247143 -0.000000 -0.000000
RightUpLeg 7.287061 -10.243751 -4.891719
RightLeg -2.930157 -0.000000 0.000000
RightFoot -21.511866 -24.129653 18.104404
RightToeBase 24.300195 -0.000000 -0.000000
1844
root 20.566157 35.351876 -23.678880 -178.261224 -0.764625 -179.767087
Spine -14.255070 0.433847 -1.827254
Head 8.248636 -1.626779 4.368708
LeftShoulder -9.626201 -32.576125 18.577258
LeftArm 4.129523 2.199522 -7.558412
LeftForeArm 6.345563 -0.000000 -3.570892
LeftHand -9.359036 -0.000000 -3.302891
LeftHandThumb1 -26.253704 0.000000 33.147579
RightShoulder -8.365208 -1.055757 -9.524494
RightArm 4.580354 39.597038 12.620712
RightForeArm -33.477232 -0.000000 2.256864
RightHand -7.048115 -0.000000 6.606084
RightHandThumb1 -24.326973 -0.000000 -32.862282
LeftUpLeg 7.191758 8.866160 4.827368
LeftLeg -5.786125 -0.000000 0.000000
LeftFoot -18.354685 24.565895 -13.737637
LeftToeBase 24.231410 -0.000000 -0.000000
RightUpLeg 7.312539 -10.282026 -4.913676
RightLeg -2.952117 -0.000000 0.000000
RightFoot -21.485879 -24.049488 18.075559
RightToeBase 24.231162 -0.000000 -0.000000
1845
root 20.561805 35.350127 -23.689934 -178.256449 -0.723759 -179.759793
Spine -14.232629 0.469020 -1.819423
Head 8.278211 -1.587301 4.287503
LeftShoulder -9.640542 -32.620257 18.583243
LeftArm 4.112930 2.187826 -7.547749
LeftForeArm 6.342639 -0.000000 -3.609671
LeftHand -9.406791 -0.000000 -3.196744
LeftHandThumb1 -26.253704 0.000000 33.147579
RightShoulder -8.354911 -1.028454 -9.535937
RightArm 4.515156 39.595422 12.570015
RightForeArm -33.556046 0.000000 2.274896
RightHand -7.043846 -0.000000 6.692981
RightHandThumb1 -24.326973 -0.000000 -32.862282
LeftUpLeg 7.225011 8.872381 4.826208
LeftLeg -5.808624 -0.000000 0.000000
LeftFoot -18.377765 24.610139 -13.739426
LeftToeBase 24.213455 -0.000000 -0.000000
RightUpLeg 7.322449 -10.300019 -4.917969
RightLeg -2.965164 -0.000000 0.000000
RightFoot -21.481502 -24.018920 18.055121
RightToeBase 24.225560 -0.000000 -0.000000
1846
root 20.555996 35.348777 -23.702984 -178.251415 -0.669019 -179.764373
Spine -14.222007 0.511986 -1.821909
Head 8.254630 -1.610705 4.241289
LeftShoulder -9.647523 -32.631594 18.571992
LeftArm 4.096881 2.106443 -7.522672
LeftForeArm 6.411837 -0.000000 -3.645600
LeftHand -9.401146 -0.000000 -3.181840
LeftHandThumb1 -26.253704 0.000000 33.147579
RightShoulder -8.381160 -1.005978 -9.567309
RightArm 4.562071 39.604016 12.616017
RightForeArm -33.498654 -0.000000 2.227405
RightHand -7.032938 -0.000000 6.613021
RightHandThumb1 -24.326973 -0.000000 -32.862282
LeftUpLeg 7.265127 8.902479 4.812037
LeftLeg -5.833053 -0.000000 0.000000
LeftFoot -18.400248 24.623812 -13.756419
LeftToeBase 24.219716 -0.000000 -0.000000
RightUpLeg 7.342039 -10.290762 -4.938275
RightLeg -2.993675 -0.000000 0.000000
RightFoot -21.458863 -23.994953 18.068373
RightToeBase 24.253183 -0.000000 -0.000000
